HIERARCHY
ROOT Hips
{
	OFFSET 0.00000 0.00000 0.00000
	CHANNELS 6 Xposition Yposition Zposition Yrotation Zrotation Xrotation 
	JOINT Lumbar
	{
		OFFSET 0 0 0
		CHANNELS 3 Zrotation Xrotation Yrotation
		JOINT Neck
		{
			OFFSET 0.00 0.2701 0.00
			CHANNELS 3 Zrotation Xrotation Yrotation
			End Site
			{
				OFFSET 0.00 0.1379 0.00
			}
		}
		JOINT RightShoulder
		{
			OFFSET 0.0119 0.2289 0.1181
			CHANNELS 3 Zrotation Xrotation Yrotation
			JOINT RightElbow
			{
				OFFSET 0.00 -0.1475 0.00
				CHANNELS 2 Zrotation Yrotation
				JOINT RightWrist
				{
					OFFSET 0.00 -0.1605 0.00
					CHANNELS 2 Zrotation Xrotation
					End Site
					{
						OFFSET 0.0040 -0.1068 0.0006
					}
				}
			}
		}
		JOINT LeftShoulder
		{
			OFFSET 0.0119 0.2289 -0.1181
			CHANNELS 3 Zrotation Xrotation Yrotation
			JOINT LeftElbow
			{
				OFFSET 0.00 -0.1475 0.00
				CHANNELS 2 Zrotation Yrotation
				JOINT LeftWrist
				{
					OFFSET 0.00 -0.1605 0.00
					CHANNELS 2 Zrotation Xrotation
					End Site
					{
						OFFSET 0.0040 -0.1068 -0.0006
					}
				}
			}
		}
	}
	JOINT RightHip
	{
		OFFSET 0.0316 -0.0424 0.0458
		CHANNELS 3 Zrotation Xrotation Yrotation
		JOINT RightKnee
		{
			OFFSET 0.00 -0.2438 0.00
			CHANNELS 1 Zrotation
			JOINT RightAnkle
			{
				OFFSET 0.00 -0.2449 0.00
				CHANNELS 3 Zrotation Xrotation Yrotation
				End Site
				{
					OFFSET 0.1237 -0.0542 0.0051
				}
			}
		}
	}
	JOINT LeftHip
	{
		OFFSET 0.0316 -0.0424 -0.0458
		CHANNELS 3 Zrotation Xrotation Yrotation
		JOINT LeftKnee
		{
			OFFSET 0.00 -0.2438 0.00
			CHANNELS 1 Zrotation
			JOINT LeftAnkle
			{
				OFFSET 0.00 -0.2449 0.00
				CHANNELS 3 Zrotation Xrotation Yrotation
				End Site
				{
					OFFSET 0.1237 -0.0542 -0.0051
				}
			}
		}
	}
}
MOTION
Frames: 20
Frame Time: 0.02
0 0.57926 0 176.43661 0 -3.28865 5.6686 3.59233 -0.18542 -33.43747 1.69125 1.43726 11.07657 -63.25222 -86.71245 22.43396 75.68669 -22.82372 -2.72319 23.46687 64.01162 70.07339 18.78988 -82.23186 -23.37814 4.13552 -1.15742 7.04666 -6.09073 -9.15605 3.21726 -5.70191 -11.35654 -0.45455 1.72999 3.46543 -7.77265 5.36628 6.05173 9.40717
-2e-05 0.57927 -5e-05 176.47546 0 -3.28108 5.63957 3.60232 -0.19114 -33.45927 1.68774 1.43029 11.04776 -63.24748 -86.72191 22.4222 75.35231 -22.79799 -2.81097 23.47236 64.02636 70.08819 18.75758 -82.23068 -23.415 4.11414 -1.16783 7.04318 -6.12313 -9.14444 3.22618 -5.71115 -11.34356 -0.45207 1.7288 3.45319 -7.77291 5.35985 6.04636 9.38461
-4e-05 0.57927 -0.0001 176.51434 0 -3.27354 5.61078 3.61224 -0.19686 -33.48143 1.68427 1.42333 11.01948 -63.24281 -86.73137 22.41057 75.02176 -22.77244 -2.89761 23.4783 64.04103 70.10223 18.72577 -82.22864 -23.45133 4.09307 -1.17825 7.03972 -6.1555 -9.13285 3.23499 -5.72032 -11.33076 -0.44959 1.72762 3.44092 -7.77316 5.35349 6.04098 9.36206
-6e-05 0.57927 -0.00015 176.55364 0 -3.26601 5.58262 3.62193 -0.20272 -33.50488 1.68107 1.41639 10.99274 -63.23844 -86.74117 22.39933 74.70447 -22.74727 -2.98011 23.48572 64.05557 70.11383 18.69547 -82.22134 -23.48582 4.07381 -1.18876 7.03634 -6.18804 -9.12125 3.24356 -5.72939 -11.31842 -0.44717 1.72648 3.42849 -7.7733 5.34738 6.03554 9.33923
-8e-05 0.57928 -0.0002 176.59062 0 -3.25842 5.55106 3.63277 -0.20791 -33.5211 1.67661 1.4094 10.95743 -63.23257 -86.74946 22.38602 74.31836 -22.71999 -3.08401 23.48482 64.07078 70.13888 18.65705 -82.23975 -23.52995 4.04593 -1.19875 7.03255 -6.21963 -9.10971 3.25352 -5.73908 -11.30351 -0.44452 1.72517 3.417 -7.77395 5.34001 6.03044 9.31776
-0.0001 0.57928 -0.00025 176.63252 0 -3.25097 5.52679 3.64121 -0.21445 -33.55285 1.67472 1.40249 10.94059 -63.2298 -86.76076 22.37708 74.07722 -22.69726 -3.14291 23.50186 64.08458 70.13513 18.6359 -82.20523 -23.55373 4.03565 -1.20986 7.02962 -6.25321 -9.09803 3.26044 -5.74741 -11.29412 -0.44232 1.7242 3.40345 -7.77356 5.33527 6.02463 9.29349
-0.00014 0.57928 -0.0003 176.68928 0 -3.24375 5.5222 3.64282 -0.22551 -33.62773 1.68087 1.39585 10.97393 -63.23656 -86.78223 22.38065 74.25291 -22.6863 -3.07139 23.56804 64.09457 70.05154 18.663 -82.00527 -23.51919 4.08111 -1.22418 7.02905 -6.29335 -9.08604 3.25972 -5.75245 -11.29979 -0.44153 1.72427 3.38453 -7.76978 5.33812 6.01658 9.25998
-0.00018 0.57927 -0.00035 176.75079 0 -3.2367 5.52504 3.64207 -0.23777 -33.71829 1.68942 1.38929 11.02625 -63.24623 -86.80628 22.38854 74.57214 -22.68 -2.95552 23.65252 64.10307 69.93891 18.70738 -81.75489 -23.46441 4.14325 -1.23961 7.02933 -6.33534 -9.0739 3.25581 -5.75605 -11.31103 -0.44117 1.72466 3.36351 -7.76504 5.34357 6.00787 9.22389
-0.00021 0.57927 -0.00039 176.80941 0 -3.22966 5.52477 3.64256 -0.249 -33.80166 1.69629 1.38267 11.0703 -63.25401 -86.82814 22.39418 74.81526 -22.67216 -2.86376 23.72895 64.11229 69.83955 18.74365 -81.54029 -23.42028 4.19295 -1.25447 7.02922 -6.37581 -9.06178 3.25283 -5.76002 -11.31994 -0.4405 1.72484 3.3432 -7.76107 5.34763 5.99963 9.18991
-0.00025 0.57926 -0.00044 176.8713 0 -3.22226 5.52341 3.64233 -0.26237 -33.88544 1.70572 1.37613 11.11227 -63.26439 -86.85486 22.40111 75.10432 -22.66219 -2.75512 23.8041 64.12159 69.73959 18.78134 -81.27274 -23.3702 4.26242 -1.26966 7.02914 -6.4191 -9.04981 3.25195 -5.76519 -11.32824 -0.44028 1.7253 3.32379 -7.75571 5.35255 5.99067 9.15194
-0.00029 0.57925 -0.00048 176.92726 0 -3.21568 5.52603 3.64306 -0.27145 -33.97189 1.7103 1.36945 11.16382 -63.26978 -86.87137 22.40628 75.33172 -22.65739 -2.67133 23.88643 64.13005 69.63438 18.81974 -81.1018 -23.32749 4.29559 -1.28435 7.02917 -6.45701 -9.03753 3.24604 -5.76753 -11.33886 -0.43924 1.72525 3.3022 -7.75298 5.35633 5.98308 9.1217
-0.00033 0.57925 -0.0005 176.96802 0 -3.21114 5.53816 3.64663 -0.26948 -34.06378 1.70183 1.36236 11.2313 -63.26283 -86.86454 22.40646 75.35532 -22.66891 -2.665 23.98322 64.13906 69.51796 18.85968 -81.22501 -23.3121 4.21626 -1.29804 7.02956 -6.47916 -9.02423 3.22609 -5.76219 -11.35692 -0.43581 1.72373 3.27346 -7.75796 5.3559 5.97927 9.11312
-0.00036 0.57924 -0.00052 177.00221 0 -3.20747 5.55396 3.65131 -0.26298 -34.15745 1.68825 1.35513 11.30924 -63.2503 -86.84592 22.4045 75.31232 -22.68491 -2.68547 24.08701 64.14665 69.39783 18.89897 -81.44475 -23.30451 4.10119 -1.31103 7.02999 -6.49585 -9.01067 3.20134 -5.7541 -11.37672 -0.43153 1.72169 3.24295 -7.76557 5.35431 5.9769 9.11247
-0.0004 0.57924 -0.00053 177.03794 0 -3.20352 5.56785 3.65571 -0.25784 -34.24908 1.67642 1.34792 11.38573 -63.23898 -86.82962 22.403 75.29789 -22.6967 -2.69518 24.18791 64.15348 69.2821 18.93614 -81.60997 -23.29196 4.00802 -1.32395 7.03023 -6.51543 -8.99732 3.17937 -5.74741 -11.39411 -0.42767 1.71988 3.2143 -7.77178 5.35351 5.97398 9.10839
-0.00044 0.57923 -0.00055 177.08005 0 -3.19906 5.58302 3.65908 -0.25565 -34.34653 1.66706 1.34084 11.44731 -63.2336 -86.82789 22.40408 75.29275 -22.71766 -2.6979 24.2873 64.16689 69.15452 18.98433 -81.81687 -23.28447 3.89213 -1.33867 7.0312 -6.53365 -8.98348 3.15476 -5.74003 -11.41838 -0.42375 1.71813 3.18102 -7.77877 5.35166 5.97058 9.10347
-0.00046 0.57923 -0.00056 177.10711 0 -3.19591 5.59628 3.66487 -0.24625 -34.43202 1.65137 1.33354 11.54422 -63.21416 -86.79091 22.39892 75.25421 -22.72075 -2.72143 24.39242 64.16539 69.05034 19.0089 -81.96247 -23.26883 3.8141 -1.3493 7.03066 -6.55303 -8.97074 3.13455 -5.73346 -11.42887 -0.41967 1.71613 3.15713 -7.78482 5.3517 5.96854 9.10222
-0.00043 0.57922 -0.00053 177.09552 0 -3.1959 5.6036 3.67713 -0.21787 -34.48429 1.61876 1.32487 11.72016 -63.15944 -86.67546 22.37925 75.10865 -22.67132 -2.80224 24.50234 64.1301 69.0177 18.97063 -81.89811 -23.22629 3.85597 -1.35005 7.02564 -6.58 -8.95988 3.12763 -5.72976 -11.39892 -0.41589 1.7134 3.15838 -7.78742 5.35721 5.96979 9.10903
-0.00037 0.57921 -0.0005 177.06877 0 -3.19722 5.60876 3.69177 -0.18246 -34.52421 1.58007 1.31613 11.93521 -63.08998 -86.52075 22.35274 74.93738 -22.60412 -2.90237 24.62 64.0781 69.00728 18.90798 -81.77166 -23.17566 3.93604 -1.3464 7.01912 -6.60776 -8.95041 3.12533 -5.72699 -11.35537 -0.41182 1.71046 3.16938 -7.78906 5.36466 5.97238 9.11928
-0.00032 0.5792 -0.00047 177.04811 0 -3.19811 5.61475 3.70534 -0.15035 -34.56972 1.54456 1.30796 12.14141 -63.02632 -86.37502 22.32819 74.7969 -22.54638 -2.98933 24.73941 64.02969 68.98352 18.85512 -81.68577 -23.13073 3.99395 -1.34399 7.01348 -6.63315 -8.94104 3.12091 -5.72381 -11.31928 -0.40759 1.70773 3.17678 -7.79125 5.3712 5.97442 9.12802
-0.00028 0.57919 -0.00044 177.03058 0 -3.19832 5.62166 3.71899 -0.1175 -34.61594 1.50707 1.29754 12.30608 -62.96783 -86.2712 22.30929 74.57142 -22.48291 -3.09461 24.8345 63.99994 68.97532 18.80825 -81.55328 -23.07829 4.07009 -1.34498 7.00707 -6.66683 -8.9284 3.11631 -5.72044 -11.27783 -0.40477 1.70453 3.18066 -7.79294 5.37775 5.97622 9.13679
